<svg width="360" height="680" viewBox="0 0 360 680" fill="none" xmlns="http://www.w3.org/2000/svg">
<g clip-path="url(#clip0)">
<rect width="360" height="680" fill="white"/>
<rect width="360" height="680" fill="url(#paint0_linear)"/>
<rect opacity="0.15" x="-12.4851" y="612.788" width="78.7267" height="78.7267" rx="20" transform="rotate(-45 -12.4851 612.788)" fill="url(#paint1_linear)"/>
<rect opacity="0.2" x="180" y="758.634" width="161.203" height="161.203" rx="20" transform="rotate(-119.196 180 758.634)" fill="url(#paint2_linear)"/>
<rect opacity="0.25" x="459.941" y="634.404" width="361.188" height="361.188" rx="20" transform="rotate(-144.766 459.941 634.404)" fill="url(#paint3_linear)"/>
<rect opacity="0.25" x="254.239" y="209.752" width="361.188" height="361.188" rx="20" transform="rotate(154.519 254.239 209.752)" fill="url(#paint4_linear)"/>
</g>
<defs>
<linearGradient id="paint0_linear" x1="-6.40847" y1="11.2999" x2="557.767" y2="331.26" gradientUnits="userSpaceOnUse">
<stop stop-color="#F26826"/>
<stop offset="1" stop-color="#FDB823"/>
</linearGradient>
<linearGradient id="paint1_linear" x1="26.8782" y1="612.788" x2="26.8782" y2="691.515" gradientUnits="userSpaceOnUse">
<stop stop-color="#FFAF54"/>
<stop offset="1" stop-color="white" stop-opacity="0.67"/>
</linearGradient>
<linearGradient id="paint2_linear" x1="260.601" y1="758.634" x2="260.601" y2="919.837" gradientUnits="userSpaceOnUse">
<stop stop-color="#FFAF54"/>
<stop offset="1" stop-color="white" stop-opacity="0.67"/>
</linearGradient>
<linearGradient id="paint3_linear" x1="640.535" y1="634.404" x2="640.535" y2="995.592" gradientUnits="userSpaceOnUse">
<stop stop-color="#FFAF54"/>
<stop offset="1" stop-color="white" stop-opacity="0.67"/>
</linearGradient>
<linearGradient id="paint4_linear" x1="434.833" y1="209.752" x2="434.833" y2="570.94" gradientUnits="userSpaceOnUse">
<stop stop-color="#FFAF54"/>
<stop offset="1" stop-color="white" stop-opacity="0.67"/>
</linearGradient>
<clipPath id="clip0">
<rect width="360" height="680" fill="white"/>
</clipPath>
</defs>
</svg>
