<svg width="18" height="27" viewBox="0 0 18 27" fill="none" xmlns="http://www.w3.org/2000/svg">
<path d="M15.1505 24.4313C15.1505 24.4313 17.3101 24.025 16.9032 21.8622L13.2415 2.39609C12.8346 0.233299 10.6751 0.639523 10.6751 0.639523L3.11664 2.06133C3.11664 2.06133 0.957092 2.46756 1.36393 4.63036L5.02568 24.0965C5.43255 26.2593 7.59207 25.8531 7.59207 25.8531L15.1505 24.4313ZM11.2019 24.2416C10.6059 24.3537 10.0311 23.961 9.91902 23.365C9.8069 22.7689 10.1996 22.1942 10.7957 22.0821C11.3917 21.97 11.9664 22.3627 12.0785 22.9588C12.1907 23.5548 11.7979 24.1295 11.2019 24.2416ZM5.5242 2.9735C5.49901 2.83961 5.54302 2.72288 5.6229 2.70785L8.575 2.15254C8.65383 2.13771 8.73873 2.23243 8.76351 2.36416L8.7755 2.42787C8.80068 2.56176 8.75559 2.6787 8.67677 2.69353L5.72467 3.24884C5.64584 3.26367 5.56096 3.16894 5.53618 3.03721L5.5242 2.9735ZM2.54467 4.96387L12.2626 3.13584L15.5125 20.4122L5.7945 22.2403L2.54467 4.96387Z" fill="#A2A2A2"/>
</svg>
